<?xml version="1.0" encoding="iso-8859-1"?>
<!-- Generator: Adobe Illustrator 23.1.0, SVG Export Plug-In . SVG Version: 6.00 Build 0)  -->
<svg version="1.1" id="Camada_1" xmlns="http://www.w3.org/2000/svg" xmlns:xlink="http://www.w3.org/1999/xlink" x="0px" y="0px"
	 viewBox="0 0 235.937 69.629" style="enable-background:new 0 0 235.937 69.629;" xml:space="preserve">
<path style="fill:#0F547A;" d="M39.908,1.529c-1.428,0.189-2.834,0.427-4.214,0.709c-0.025,0.004-0.05,0.01-0.074,0.015
	c-1.38,0.282-2.733,0.609-4.054,0.978c-0.019,0.006-0.039,0.011-0.056,0.017c-1.332,0.373-2.637,0.788-3.907,1.244c0,0,0,0-0.005,0
	c-5.107,1.837-9.686,4.328-13.528,7.316c-0.014,0.012-0.029,0.024-0.043,0.035c-0.916,0.715-1.787,1.463-2.616,2.233
	c-0.058,0.053-0.117,0.105-0.173,0.16c-0.793,0.744-1.538,1.517-2.244,2.31c-0.075,0.085-0.153,0.17-0.228,0.256
	c-0.679,0.779-1.312,1.579-1.902,2.399c-0.078,0.107-0.155,0.214-0.231,0.323c-0.573,0.815-1.098,1.647-1.578,2.497
	c-0.068,0.12-0.13,0.239-0.198,0.359C4.393,23.234,3.97,24.104,3.6,24.991c-0.049,0.118-0.093,0.238-0.14,0.357
	c-0.361,0.899-0.676,1.814-0.932,2.743c-0.027,0.103-0.05,0.208-0.079,0.31C2.203,29.357,2,30.323,1.866,31.305
	c-0.009,0.067-0.014,0.137-0.021,0.205c-0.133,1.025-0.209,2.06-0.209,3.107c0,0.716,0.043,1.422,0.103,2.127
	c0.019,0.2,0.042,0.401,0.064,0.602c0.061,0.543,0.139,1.081,0.238,1.618c0.031,0.174,0.055,0.347,0.091,0.519
	c0.139,0.683,0.302,1.36,0.498,2.03c0.036,0.126,0.082,0.249,0.12,0.375c0.172,0.554,0.361,1.102,0.569,1.646
	c0.075,0.192,0.149,0.383,0.228,0.575c0.225,0.548,0.468,1.09,0.728,1.627c0.055,0.107,0.102,0.218,0.157,0.326
	c0.319,0.634,0.668,1.259,1.038,1.874c0.094,0.157,0.197,0.311,0.295,0.466c0.299,0.477,0.614,0.949,0.944,1.416
	c0.115,0.165,0.232,0.33,0.352,0.494c0.438,0.593,0.891,1.181,1.376,1.753l0.024,0.026c0.478,0.563,0.985,1.112,1.504,1.651
	c0.146,0.151,0.295,0.3,0.445,0.45c0.43,0.432,0.876,0.856,1.336,1.274c0.131,0.117,0.256,0.236,0.388,0.356
	c0.589,0.518,1.193,1.024,1.823,1.517c0.106,0.084,0.217,0.161,0.324,0.245c0.537,0.412,1.085,0.815,1.65,1.205
	c0.177,0.124,0.356,0.25,0.537,0.37c0.607,0.409,1.225,0.809,1.862,1.194c0.076,0.046,0.152,0.098,0.23,0.144
	c0.721,0.432,1.466,0.848,2.224,1.247c0.17,0.089,0.338,0.175,0.507,0.26c0.619,0.319,1.249,0.626,1.891,0.925
	c0.185,0.083,0.37,0.174,0.554,0.257c0.807,0.362,1.628,0.71,2.466,1.039c-5.592-4.042-9.646-9.749-9.627-15.758
	c0.038-11.758,13.44-21.23,27.77-22.113V1.097c-1.48,0.092-2.943,0.236-4.383,0.426C39.943,1.525,39.927,1.527,39.908,1.529
	 M52.447,2.889c-0.003-0.063-0.006-0.128-0.006-0.192v35.605c12.07-2.042,19.453-9.842,19.521-18.646
	C72.031,10.786,60.739,3.804,52.447,2.889"/>
<path style="fill:#4290B7;" d="M24.822,49.153c-0.063,8.175,9.519,14.74,17.512,16.442c0.853-0.688,1.671-1.569,2.012-2.846V30.507
	C32.273,32.549,24.889,40.349,24.822,49.153 M95.05,32.538c-0.018-0.201-0.041-0.401-0.065-0.601
	c-0.055-0.514-0.127-1.023-0.215-1.529c-0.035-0.191-0.067-0.382-0.104-0.571c-0.27-1.354-0.651-2.683-1.14-3.982
	c-0.064-0.167-0.132-0.333-0.197-0.499c-0.207-0.514-0.426-1.022-0.666-1.526c-0.068-0.146-0.135-0.293-0.206-0.436
	c-0.635-1.284-1.377-2.536-2.217-3.746c-0.074-0.109-0.154-0.217-0.232-0.324c-0.38-0.533-0.778-1.059-1.197-1.576
	c-0.057-0.072-0.115-0.147-0.175-0.218c-0.991-1.202-2.083-2.356-3.266-3.458c-0.048-0.042-0.097-0.087-0.144-0.131
	c-0.588-0.54-1.193-1.069-1.825-1.581c-0.005-0.003-0.01-0.007-0.016-0.013c-1.325-1.077-2.746-2.093-4.25-3.04
	c-0.005-0.002-0.008-0.005-0.011-0.008c-2.261-1.423-4.713-2.694-7.322-3.786c4.949,3.963,8.424,9.266,8.405,14.829
	C80.171,32.1,66.771,41.571,52.441,42.455v20.673c0.515,1.943,2.702,3.343,5.285,4.467c0.005,0,0.012,0,0.018-0.003
	c1.22-0.18,2.417-0.401,3.601-0.646c0.166-0.038,0.333-0.069,0.496-0.104c1.133-0.245,2.245-0.523,3.34-0.828
	c0.184-0.051,0.367-0.104,0.552-0.157c1.095-0.319,2.172-0.659,3.227-1.034c0.127-0.045,0.251-0.091,0.378-0.139
	c2.194-0.797,4.287-1.714,6.267-2.738c0.124-0.063,0.251-0.126,0.376-0.192c0.937-0.495,1.846-1.018,2.732-1.562
	c0.143-0.089,0.287-0.18,0.43-0.27c0.877-0.551,1.726-1.124,2.542-1.721c0.102-0.074,0.2-0.151,0.301-0.228
	c1.685-1.254,3.235-2.603,4.633-4.033c0.096-0.096,0.194-0.191,0.285-0.287c0.655-0.684,1.273-1.387,1.859-2.109
	c0.103-0.126,0.205-0.252,0.304-0.38c0.574-0.725,1.114-1.465,1.611-2.222c0.07-0.108,0.136-0.217,0.205-0.325
	c0.511-0.798,0.989-1.608,1.414-2.436V46.18c0.422-0.825,0.788-1.669,1.12-2.524c0.048-0.124,0.098-0.244,0.143-0.367
	c0.307-0.818,0.562-1.647,0.782-2.489c0.039-0.155,0.079-0.312,0.115-0.469c0.203-0.844,0.366-1.696,0.479-2.56
	c0.017-0.131,0.026-0.265,0.04-0.396c0.105-0.91,0.171-1.828,0.171-2.757C95.147,33.918,95.108,33.228,95.05,32.538"/>
<path style="fill:#FFFFFF;" d="M86.618,53.941c-1.398,1.43-2.948,2.779-4.633,4.033c-0.1,0.077-0.199,0.154-0.301,0.227
	c-0.815,0.597-1.664,1.171-2.542,1.721c-0.144,0.091-0.287,0.181-0.43,0.27c-0.886,0.545-1.795,1.067-2.732,1.562
	c-0.124,0.067-0.252,0.129-0.375,0.193c-1.98,1.024-4.074,1.94-6.268,2.738c-0.126,0.047-0.251,0.094-0.378,0.139
	c-1.054,0.374-2.132,0.715-3.227,1.033c-0.184,0.053-0.367,0.106-0.552,0.158c-1.094,0.305-2.207,0.583-3.34,0.827
	c-0.163,0.035-0.33,0.067-0.496,0.104c-1.183,0.246-2.38,0.467-3.6,0.646c-0.007,0.004-0.011,0.004-0.017,0.004h-0.001
	c-2.584-1.125-4.77-2.524-5.286-4.467V42.455c14.33-0.883,27.73-10.354,27.766-22.112c0.02-5.563-3.456-10.866-8.405-14.829
	c2.61,1.092,5.061,2.362,7.323,3.785c0.002,0.004,0.005,0.007,0.01,0.008c1.505,0.948,2.925,1.964,4.251,3.041
	c0.005,0.005,0.011,0.009,0.015,0.013c0.632,0.512,1.237,1.04,1.826,1.581c0.046,0.044,0.096,0.088,0.143,0.131
	c1.183,1.102,2.275,2.256,3.267,3.457c0.06,0.071,0.114,0.146,0.174,0.218c0.419,0.517,0.818,1.043,1.198,1.576
	c0.078,0.108,0.157,0.215,0.232,0.325c0.839,1.21,1.581,2.461,2.216,3.746c0.071,0.143,0.139,0.29,0.206,0.436
	c0.24,0.503,0.46,1.011,0.667,1.526c0.064,0.165,0.133,0.332,0.196,0.498c0.49,1.299,0.871,2.628,1.141,3.982
	c0.036,0.19,0.068,0.381,0.103,0.571c0.088,0.507,0.16,1.016,0.216,1.529c0.023,0.201,0.046,0.401,0.064,0.601
	c0.058,0.689,0.097,1.381,0.097,2.079c0,0.93-0.066,1.847-0.17,2.757c-0.015,0.131-0.024,0.265-0.04,0.397
	c-0.114,0.863-0.277,1.715-0.48,2.56c-0.036,0.157-0.076,0.313-0.115,0.469c-0.219,0.841-0.475,1.671-0.781,2.489
	c-0.045,0.122-0.096,0.243-0.144,0.367c-0.332,0.854-0.697,1.698-1.12,2.524v0.001c-0.425,0.828-0.903,1.638-1.414,2.437
	c-0.068,0.107-0.135,0.217-0.205,0.324c-0.497,0.758-1.037,1.497-1.611,2.223c-0.099,0.127-0.2,0.254-0.303,0.38
	c-0.587,0.721-1.204,1.425-1.859,2.109C86.813,53.751,86.714,53.845,86.618,53.941 M24.821,49.154
	c0.068-8.804,7.451-16.605,19.524-18.646V62.75c-0.34,1.277-1.159,2.158-2.012,2.845C34.34,63.894,24.759,57.328,24.821,49.154
	 M21.302,62.01c-0.004,0-0.008-0.004-0.011-0.006c-0.17-0.086-0.338-0.171-0.508-0.26c0,0-0.001-0.002-0.004-0.002
	c-0.755-0.4-1.498-0.813-2.217-1.245h-0.003c-0.078-0.046-0.153-0.098-0.23-0.145c-0.015-0.006-0.027-0.015-0.041-0.025
	c-0.617-0.375-1.221-0.763-1.811-1.163c-0.004-0.001-0.008-0.002-0.009-0.005c-0.144-0.098-0.29-0.197-0.432-0.296
	c-0.035-0.023-0.071-0.049-0.106-0.074c-0.564-0.39-1.113-0.793-1.649-1.205c-0.108-0.084-0.218-0.162-0.325-0.246
	c-0.627-0.491-1.23-0.994-1.816-1.512c0-0.002-0.004-0.004-0.007-0.004c-0.131-0.12-0.257-0.239-0.387-0.356
	c-0.002,0-0.002-0.004-0.004-0.004c-0.452-0.409-0.89-0.829-1.317-1.255c-0.004-0.005-0.012-0.012-0.016-0.016
	c-0.146-0.146-0.289-0.288-0.431-0.435c-0.004-0.007-0.009-0.011-0.013-0.014c-0.511-0.53-1.007-1.07-1.478-1.622
	c-0.009-0.009-0.019-0.019-0.027-0.029c-0.005-0.008-0.016-0.017-0.023-0.026c-0.002-0.002-0.002-0.003-0.004-0.004
	c-0.482-0.572-0.936-1.158-1.372-1.749c-0.12-0.164-0.237-0.329-0.352-0.494c-0.329-0.464-0.641-0.931-0.938-1.407
	c-0.002-0.002-0.006-0.006-0.006-0.009c-0.067-0.106-0.134-0.212-0.201-0.318c-0.031-0.049-0.063-0.098-0.094-0.148
	c-0.37-0.615-0.719-1.241-1.038-1.874c-0.03-0.056-0.055-0.115-0.083-0.173c-0.023-0.051-0.047-0.103-0.074-0.153
	c-0.003-0.007-0.004-0.013-0.008-0.02c-0.258-0.53-0.498-1.066-0.72-1.608c-0.079-0.191-0.154-0.381-0.228-0.575
	c-0.208-0.543-0.398-1.091-0.569-1.645c-0.039-0.126-0.084-0.249-0.12-0.375c-0.196-0.67-0.359-1.347-0.499-2.03
	c-0.015-0.075-0.027-0.152-0.039-0.226c-0.016-0.099-0.036-0.196-0.051-0.293c0-0.001-0.003-0.003-0.003-0.006
	c-0.096-0.533-0.174-1.067-0.232-1.606c0-0.002-0.003-0.004-0.003-0.006c-0.022-0.201-0.045-0.402-0.065-0.602v-0.003
	c-0.059-0.704-0.102-1.41-0.102-2.124c0-0.527,0.02-1.05,0.055-1.571c0.035-0.504,0.086-1.004,0.15-1.502
	c0-0.011,0.001-0.023,0.003-0.035c0.002-0.021,0.004-0.042,0.006-0.064c0.007-0.046,0.011-0.094,0.016-0.14
	c0.133-0.981,0.336-1.946,0.583-2.899V28.4c0.025-0.084,0.044-0.169,0.066-0.254c0.005-0.018,0.01-0.036,0.013-0.056
	c0.256-0.929,0.571-1.843,0.932-2.742c0.036-0.088,0.069-0.179,0.102-0.266c0.015-0.03,0.024-0.06,0.038-0.091
	c0-0.001,0.002-0.003,0.002-0.003c0.368-0.883,0.789-1.751,1.252-2.603c0.003-0.002,0.003-0.004,0.003-0.006
	c0.06-0.11,0.119-0.219,0.18-0.328c0.008-0.011,0.011-0.02,0.018-0.03c0.48-0.85,1.005-1.682,1.575-2.496
	c0.002,0,0.002-0.001,0.002-0.001c0.009-0.014,0.021-0.028,0.03-0.041c0.066-0.095,0.133-0.189,0.202-0.282
	c0.59-0.82,1.22-1.62,1.901-2.398v-0.001c0.059-0.068,0.12-0.135,0.181-0.201c0.017-0.019,0.032-0.037,0.048-0.055
	c0.705-0.792,1.451-1.565,2.241-2.309c0-0.001,0-0.001,0.002-0.001c0.057-0.055,0.116-0.107,0.174-0.16
	c0-0.002,0.003-0.002,0.005-0.003c0.826-0.769,1.693-1.514,2.607-2.227c0-0.003,0.002-0.003,0.004-0.004
	c0.006-0.005,0.013-0.011,0.021-0.016c0.008-0.006,0.015-0.011,0.022-0.018c3.841-2.988,8.418-5.478,13.524-7.312
	c0.002-0.001,0.004-0.004,0.004-0.004c0.004,0,0.004,0,0.004-0.001c0.005-0.002,0.01-0.003,0.014-0.003
	c1.267-0.455,2.566-0.869,3.894-1.24c0.009-0.003,0.019-0.006,0.028-0.009c0.009-0.004,0.018-0.005,0.027-0.008
	c0.003-0.001,0.005-0.001,0.009-0.003c1.319-0.368,2.67-0.695,4.045-0.976c0.009-0.002,0.017-0.003,0.025-0.004
	c0.015-0.004,0.032-0.008,0.05-0.01c0.002-0.002,0.005-0.002,0.005-0.002c1.38-0.281,2.782-0.518,4.208-0.708
	c0.02-0.002,0.036-0.004,0.055-0.006c1.439-0.189,2.902-0.333,4.383-0.425v25.257c-14.33,0.882-27.733,10.355-27.77,22.113
	c-0.019,6.008,4.035,11.716,9.627,15.758c-0.839-0.329-1.659-0.678-2.466-1.039c-0.132-0.061-0.263-0.12-0.393-0.183
	c-0.055-0.027-0.108-0.051-0.161-0.074c-0.004-0.003-0.008-0.006-0.012-0.006C22.537,62.63,21.913,62.325,21.302,62.01
	 M71.961,19.655c-0.067,8.805-7.45,16.605-19.521,18.647V2.696c0,0.065,0.003,0.129,0.007,0.193
	C60.738,3.803,72.031,10.786,71.961,19.655 M48.423,0C21.753,0,0,15.638,0,34.814c0,19.173,21.753,34.815,48.423,34.815
	s48.423-15.642,48.423-34.815C96.846,15.638,75.093,0,48.423,0"/>
<path style="fill:#0F547A;" d="M116.01,27.308c1.906,0,2.799-1.231,2.799-3.258c0-2.003-0.893-2.944-2.799-2.944h-3.21v6.202H116.01
	z M112.8,30.035v5.044h-2.823v-16.7h6.057c3.789,0,5.671,1.882,5.671,5.671c0,3.789-1.882,5.985-5.671,5.985H112.8z"/>
<path style="fill:#0F547A;" d="M130.68,21.081h-3.475v5.599h3.524c1.955,0,2.679-1.158,2.679-2.872
	C133.408,21.974,132.515,21.081,130.68,21.081 M130.923,29.383h-3.717v5.695h-2.823V18.379h6.298c3.814,0,5.647,1.568,5.647,5.381
	c0,2.51-0.916,3.958-2.63,4.803l2.63,6.515h-3.112L130.923,29.383z"/>
<path style="fill:#0F547A;" d="M149.02,26.849c0-3.886-0.749-6.009-3.813-6.009c-3.065,0-3.813,2.123-3.813,6.009
	c0,3.885,0.724,5.768,3.813,5.768C148.296,32.617,149.02,30.783,149.02,26.849 M138.474,26.849c0-5.599,1.568-8.736,6.733-8.736
	c5.164,0,6.733,3.137,6.733,8.736c0,5.647-1.569,8.495-6.733,8.495C140.042,35.344,138.474,32.448,138.474,26.849"/>
<path style="fill:#0F547A;" d="M161.519,26.342h4.706v8.446c0,0-3.427,0.556-5.526,0.556c-5.165,0-6.637-3.089-6.637-8.64
	c0-5.84,1.617-8.591,6.54-8.591c2.534,0,5.623,0.675,5.623,0.675l-0.072,2.462c0,0-2.944-0.386-5.14-0.386
	c-3.186,0-4.031,1.424-4.031,5.84c0,4.296,0.676,5.888,3.958,5.888c1.135,0,2.461-0.169,2.486-0.169v-3.547h-1.907V26.342z"/>
<path style="fill:#0F547A;" d="M175.611,21.081h-3.475v5.599h3.523c1.956,0,2.68-1.158,2.68-2.872
	C178.339,21.974,177.446,21.081,175.611,21.081 M175.853,29.383h-3.717v5.695h-2.823V18.379h6.298c3.814,0,5.647,1.568,5.647,5.381
	c0,2.51-0.917,3.958-2.63,4.803l2.63,6.515h-3.113L175.853,29.383z"/>
<rect y="0" style="fill:none;" width="235.937" height="88.348"/>
<polygon style="fill:#0F547A;" points="184.2,18.379 194.626,18.379 194.626,21.082 187,21.082 187,25.45 193.178,25.45 
	193.178,28.104 187,28.104 187,32.376 194.626,32.376 194.626,35.079 184.2,35.079 "/>
<path style="fill:#0F547A;" d="M207.198,21.226c0,0-3.378-0.386-4.778-0.386c-1.979,0-2.968,0.628-2.968,1.979
	c0,1.424,0.82,1.786,3.62,2.582c3.475,1.014,4.705,1.955,4.705,4.875c0,3.475-2.317,5.068-5.695,5.068
	c-1.835,0-5.092-0.628-5.092-0.628l0.29-2.534c0,0,3.064,0.411,4.777,0.411c1.98,0,2.872-0.628,2.872-2.245
	c0-1.303-0.699-1.81-3.185-2.437c-3.62-0.941-5.117-2.051-5.117-5.044c0-3.186,2.197-4.778,5.793-4.778
	c1.858,0,4.995,0.603,4.995,0.603L207.198,21.226z"/>
<path style="fill:#0F547A;" d="M220.011,21.226c0,0-3.379-0.386-4.778-0.386c-1.979,0-2.969,0.628-2.969,1.979
	c0,1.424,0.821,1.786,3.62,2.582c3.475,1.014,4.706,1.955,4.706,4.875c0,3.475-2.317,5.068-5.695,5.068
	c-1.834,0-5.092-0.628-5.092-0.628l0.289-2.534c0,0,3.065,0.411,4.779,0.411c1.979,0,2.871-0.628,2.871-2.245
	c0-1.303-0.699-1.81-3.185-2.437c-3.62-0.941-5.116-2.051-5.116-5.044c0-3.186,2.196-4.778,5.792-4.778
	c1.858,0,4.995,0.603,4.995,0.603L220.011,21.226z"/>
<path style="fill:#0F547A;" d="M233.016,26.849c0-3.886-0.748-6.009-3.812-6.009c-3.066,0-3.814,2.123-3.814,6.009
	c0,3.885,0.725,5.768,3.814,5.768S233.016,30.783,233.016,26.849 M222.471,26.849c0-5.599,1.568-8.736,6.734-8.736
	c5.163,0,6.732,3.137,6.732,8.736c0,5.647-1.569,8.495-6.732,8.495C224.038,35.344,222.471,32.448,222.471,26.849"/>
<path style="fill:#0F547A;" d="M117.337,50.419h-5.35v5.867h5.35c1.933,0,3.012-0.989,3.012-2.922
	C120.349,51.454,119.27,50.419,117.337,50.419 M116.954,43.382h-4.967v5.575h4.967c1.843,0,2.878-0.944,2.878-2.81
	C119.832,44.305,118.821,43.382,116.954,43.382 M121.495,45.945c0,1.821-0.719,2.99-2.112,3.597v0.045
	c1.708,0.449,2.674,1.798,2.674,3.933c0,2.765-1.843,4.294-4.653,4.294h-6.586c-0.337,0-0.449-0.113-0.449-0.45v-15.06
	c0-0.338,0.112-0.45,0.449-0.45h6.339C119.899,41.854,121.495,43.294,121.495,45.945"/>
<path style="fill:#0F547A;" d="M125.272,41.855h0.742c0.337,0,0.427,0.112,0.427,0.45v15.06c0,0.337-0.09,0.45-0.427,0.45h-0.742
	c-0.337,0-0.45-0.113-0.45-0.45v-15.06C124.822,41.967,124.935,41.855,125.272,41.855"/>
<path style="fill:#0F547A;" d="M131.566,42.304v13.981h7.62c0.315,0,0.427,0.113,0.427,0.45v0.629c0,0.338-0.112,0.45-0.427,0.45
	h-8.789c-0.337,0-0.449-0.112-0.449-0.45v-15.06c0-0.337,0.112-0.45,0.449-0.45h0.742C131.476,41.854,131.566,41.967,131.566,42.304
	"/>
<path style="fill:#0F547A;" d="M142.109,41.855h0.741c0.337,0,0.428,0.112,0.428,0.45v15.06c0,0.337-0.091,0.45-0.428,0.45h-0.741
	c-0.338,0-0.45-0.113-0.45-0.45v-15.06C141.658,41.967,141.77,41.855,142.109,41.855 M144.536,37.674l0.337,0.405
	c0.203,0.247,0.203,0.359-0.067,0.472l-3.978,2.09c-0.248,0.09-0.405,0.112-0.518-0.045l-0.201-0.247
	c-0.203-0.225-0.203-0.337,0.022-0.45l3.641-2.27C144.04,37.494,144.311,37.404,144.536,37.674"/>
<path style="fill:#0F547A;" d="M158.809,42.304v15.06c0,0.338-0.112,0.45-0.449,0.45h-0.72c-0.247,0-0.359-0.045-0.472-0.248
	l-7.171-10.295c-0.832-1.236-1.461-2.72-1.797-3.214h-0.091c0,0.629,0.248,2.315,0.248,3.979v9.328c0,0.338-0.113,0.45-0.427,0.45
	h-0.697c-0.337,0-0.45-0.112-0.45-0.45v-15.06c0-0.337,0.113-0.45,0.45-0.45h0.719c0.27,0,0.383,0.09,0.472,0.225l6.99,10.093
	c0.923,1.348,1.597,2.855,2.002,3.394h0.067c0-0.719-0.27-2.405-0.27-4.181v-9.104c0-0.314,0.112-0.427,0.45-0.427h0.697
	C158.697,41.854,158.809,41.967,158.809,42.304"/>
<path style="fill:#0F547A;" d="M174.185,49.991v2.765c0,3.215-2.159,5.372-6.16,5.372c-4.023,0-6.182-2.157-6.182-5.664v-5.282
	c0-3.507,2.136-5.643,6.159-5.643c3.44,0,5.193,1.349,5.98,3.844c0.113,0.337,0.045,0.472-0.27,0.585l-0.696,0.247
	c-0.315,0.089-0.45,0.045-0.585-0.27c-0.607-1.956-1.843-2.9-4.429-2.9c-2.988,0-4.54,1.529-4.54,4.114v5.305
	c0,2.607,1.596,4.158,4.563,4.158c2.945,0,4.563-1.551,4.563-3.866V51.07h-4.338c-0.337,0-0.45-0.112-0.45-0.45v-0.629
	c0-0.337,0.113-0.449,0.45-0.449h5.485C174.072,49.542,174.185,49.654,174.185,49.991"/>
<path style="fill:#0F547A;" d="M182.951,56.623c2.968,0,4.406-1.618,4.406-4.226V42.305c0-0.338,0.112-0.45,0.449-0.45h0.742
	c0.338,0,0.451,0.112,0.451,0.45v10.07c0,3.506-2.024,5.776-6.048,5.776c-4.024,0-6.046-2.27-6.046-5.776v-10.07
	c0-0.338,0.112-0.45,0.449-0.45h0.742c0.337,0,0.449,0.112,0.449,0.45v10.092C178.545,55.005,179.985,56.623,182.951,56.623"/>
<path style="fill:#0F547A;" d="M202.35,42.304v0.629c0,0.337-0.112,0.45-0.427,0.45h-7.935v5.574h6.923
	c0.315,0,0.427,0.113,0.427,0.45v0.629c0,0.337-0.112,0.45-0.427,0.45h-6.923v5.799h8.227c0.315,0,0.428,0.113,0.428,0.45v0.629
	c0,0.338-0.113,0.45-0.428,0.45h-9.396c-0.337,0-0.449-0.112-0.449-0.45v-15.06c0-0.337,0.112-0.45,0.449-0.45h9.104
	C202.238,41.854,202.35,41.967,202.35,42.304"/>
<rect y="0" style="fill:none;" width="235.937" height="88.348"/>
</svg>
